<?xml version="1.0" encoding="UTF-8" standalone="no"?>
<!-- Created with Inkscape (http://www.inkscape.org/) -->

<svg
   xmlns:dc="http://purl.org/dc/elements/1.1/"
   xmlns:cc="http://creativecommons.org/ns#"
   xmlns:rdf="http://www.w3.org/1999/02/22-rdf-syntax-ns#"
   xmlns:svg="http://www.w3.org/2000/svg"
   xmlns="http://www.w3.org/2000/svg"
   xmlns:sodipodi="http://sodipodi.sourceforge.net/DTD/sodipodi-0.dtd"
   xmlns:inkscape="http://www.inkscape.org/namespaces/inkscape"
   id="svg2"
   version="1.1"
   inkscape:version="0.91 r13725"
   xml:space="preserve"
   width="1000"
   height="325"
   viewBox="0 0 1000 325"
   sodipodi:docname="logos.svg"><metadata
     id="metadata8"><rdf:RDF><cc:Work
         rdf:about=""><dc:format>image/svg+xml</dc:format><dc:type
           rdf:resource="http://purl.org/dc/dcmitype/StillImage" /><dc:title /></cc:Work></rdf:RDF></metadata><defs
     id="defs6" /><sodipodi:namedview
     pagecolor="#ffffff"
     bordercolor="#666666"
     borderopacity="1"
     objecttolerance="10"
     gridtolerance="10"
     guidetolerance="10"
     inkscape:pageopacity="0"
     inkscape:pageshadow="2"
     inkscape:window-width="1600"
     inkscape:window-height="876"
     id="namedview4"
     showgrid="false"
     inkscape:zoom="0.41986485"
     inkscape:cx="341.71763"
     inkscape:cy="276.77849"
     inkscape:window-x="0"
     inkscape:window-y="24"
     inkscape:window-maximized="1"
     inkscape:current-layer="g10" /><g
     id="g10"
     inkscape:groupmode="layer"
     inkscape:label="Envelope DL"
     transform="matrix(1.25,0,0,-1.25,0,325.00002)"><path
       d="m 7.2478163,156.01282 c -11.950626,14.39255 -2.7544449,33.2935 -2.7544449,33.2935 0,0 6.8831166,17.55028 31.7775766,18.90438 11.832896,0.64302 19.499021,-5.21949 24.288689,-11.54692 -0.711087,4.16635 -1.082684,8.56301 -0.607913,12.39158 1.430736,11.55634 10.699696,25.27162 16.28907,31.01683 5.590658,5.74606 14.961935,20.89208 14.961935,20.89208 -0.358326,-1.09467 -5.460942,-11.77125 -20.370648,-34.4815 -11.846596,-18.04645 -1.557884,-45.65041 -1.557884,-45.65041 l 0.1721,-0.77059 -4.479291,0 -0.161397,0.71836 c 0,0 -1.604119,4.26781 -3.008312,9.98133 -4.704904,5.58338 -11.875707,10.39874 -22.50134,9.82122 -24.218478,-1.31943 -30.914512,-18.39236 -30.914512,-18.39236 0,0 -6.5688839,-13.50209 -1.1336287,-26.1775 z M 79.032056,109.78233 C 74.766391,100.33613 69.963451,84.759003 78.193393,74.200155 L 89.058338,59.442428 76.060132,72.472312 c -9.398676,12.057653 -3.110202,31.607618 0.616475,40.619288 0.795852,-1.15418 1.582286,-2.25827 2.355449,-3.30927 z m -6.919505,10.39145 c -0.527857,-3.72325 -2.211176,-8.93289 -7.211046,-12.95068 -8.739818,-7.02396 -22.217076,0.47177 -23.254809,6.04702 0,0 -10.398735,-12.14413 -3.041277,-22.878932 C 27.559813,100.49153 42.3154,117.3898 42.3154,117.3898 c 0.628462,-7.44479 11.291769,-12.36075 20.274324,-5.14157 4.566625,3.66973 6.441736,8.30657 7.183219,11.97973 0.77145,-1.39434 1.553174,-2.74716 2.339608,-4.05418"
       style="fill:#ffffff;fill-opacity:1;fill-rule:evenodd;stroke:none"
       id="path14"
       inkscape:connector-curvature="0" /><path
       d="m 43.830045,168.6908 -8.088238,5.25117 -7.054358,-6.57531 2.054489,9.81994 -8.088237,5.2486 9.35886,0.81939 2.055773,9.81994 3.727962,-9.31391 9.359718,0.81897 -7.05393,-6.57488 3.727961,-9.31391 z"
       style="fill:#ffffff;fill-opacity:1;fill-rule:nonzero;stroke:none"
       id="path16"
       inkscape:connector-curvature="0" /><path
       d="m 86.246526,166.44923 0,-9.71034 c 0,0 5.067511,-7.67683 10.51989,0 l 0,9.71034 -10.51989,0 z"
       style="fill:#ffffff;fill-opacity:1;fill-rule:evenodd;stroke:none"
       id="path18"
       inkscape:connector-curvature="0" /><path
       d="m 72.414795,149.46106 0,-9.71077 c 0,0 5.064942,-7.67426 10.51775,0 l 0,9.71077 -10.51775,0 z"
       style="fill:#ffffff;fill-opacity:1;fill-rule:evenodd;stroke:none"
       id="path20"
       inkscape:connector-curvature="0" /><path
       d="m 86.183594,149.46234 0,-9.71076 c 0,0 5.067511,-7.67555 10.519891,0 l 0,9.71076 -10.519891,0 z"
       style="fill:#ffffff;fill-opacity:1;fill-rule:evenodd;stroke:none"
       id="path22"
       inkscape:connector-curvature="0" /><path
       d="m 99.880475,149.44051 0,-9.71205 c 0,0 5.066645,-7.67426 10.519025,0 l 0,9.71205 -10.519025,0 z"
       style="fill:#ffffff;fill-opacity:1;fill-rule:evenodd;stroke:none"
       id="path24"
       inkscape:connector-curvature="0" /><path
       d="m 86.110388,131.17444 0,-9.70948 c 0,0 5.066654,-7.67683 10.520318,0 l 0,9.70948 -10.520318,0 z"
       style="fill:#ffffff;fill-opacity:1;fill-rule:evenodd;stroke:none"
       id="path26"
       inkscape:connector-curvature="0" /><path
       d="m 209.18107,133.04827 c 1.14904,5.74734 1.86783,11.4934 1.86783,17.39101 0,19.81111 -12.06621,29.64175 -30.30959,29.64175 -24.27542,0 -42.08641,-23.28906 -42.08641,-47.4857 0,-23.13837 14.36344,-34.027286 35.62326,-34.027286 7.9003,0 16.08786,1.965876 23.55706,4.385536 l 2.44192,16.03092 c -7.18193,-3.47795 -14.7954,-5.5958 -22.6957,-5.5958 -13.21525,0 -20.54146,5.29227 -20.54146,19.65957 l 52.14309,0 z m -49.55689,13.91307 c 3.73395,10.73737 8.90592,18.2986 20.82786,18.2986 8.04415,0 12.21049,-4.68906 12.21049,-13.00505 0,-1.81561 -0.14427,-3.47838 -0.43196,-5.29355 l -32.60639,0 z"
       style="fill:#ffffff;fill-opacity:1;fill-rule:evenodd;stroke:none"
       id="path28"
       inkscape:connector-curvature="0" /><path
       d="m 275.59041,176.90533 c -6.75083,1.81432 -13.93233,3.1757 -20.97085,3.1757 -15.22651,0 -32.03273,-6.50338 -32.03273,-24.80113 0,-19.50973 24.99421,-20.7187 24.99421,-33.26996 0,-6.35184 -6.75083,-8.62124 -13.21568,-8.62124 -7.4692,0 -12.92757,2.87389 -18.38594,6.04959 l -4.16635,-16.18247 c 7.03852,-3.476659 14.7954,-4.687776 22.55229,-4.687776 16.51896,0 33.32518,6.049586 33.32518,26.315356 0,19.05378 -24.99292,22.68242 -24.99292,32.51306 0,6.19986 7.18065,7.86348 12.92799,7.86348 5.45838,0 10.77248,-1.66362 15.80017,-3.62949 l 4.16463,15.27488 z"
       style="fill:#ffffff;fill-opacity:1;fill-rule:evenodd;stroke:none"
       id="path30"
       inkscape:connector-curvature="0" /><path
       d="m 342.86411,177.05559 c -5.17111,1.66406 -12.06621,3.02544 -19.24815,3.02544 -26.57393,0 -43.66784,-20.7187 -43.66784,-47.9395 0,-20.11421 12.35262,-33.573486 31.45736,-33.573486 6.32143,0 12.64159,0.605345 18.53064,3.629496 l 2.15423,16.03092 c -5.02641,-2.57036 -10.91589,-3.93302 -15.65718,-3.93302 -13.21397,0 -16.37554,10.13416 -16.37554,20.26576 0,14.66954 8.61994,29.79115 23.98944,29.79115 5.31495,0 10.34265,-1.36009 14.07661,-3.93174 l 4.74043,16.63498 z"
       style="fill:#ffffff;fill-opacity:1;fill-rule:evenodd;stroke:none"
       id="path32"
       inkscape:connector-curvature="0" /><path
       d="m 429.57691,163.44605 13.93276,0 16.3109,10e-4 -17.49076,-5.41514 -4.27851,-20.90064 c -1.29246,-6.19986 -2.44193,-12.09747 -2.44193,-18.14706 0,-14.97135 9.19404,-20.416456 22.2646,-20.416456 3.30456,0 7.03852,1.059139 10.3418,1.815176 l 3.30456,15.72739 c -2.4415,-1.05785 -5.88905,-1.81517 -9.33703,-1.81517 -4.30933,0 -7.32578,2.87346 -7.32578,7.56166 0,3.0263 0.43196,5.74692 0.86264,7.56124 l 7.03852,34.02771 17.2369,0 3.01687,14.81938 -17.23818,0 4.74129,23.13879 -20.68488,-7.10916 -3.30413,-16.02963 -13.93405,0 -3.01559,-14.81938 z"
       style="fill:#ffffff;fill-opacity:1;fill-rule:evenodd;stroke:none"
       id="path34"
       inkscape:connector-curvature="0" /><path
       d="m 551.14408,133.04827 c 1.14904,5.74734 1.8674,11.4934 1.8674,17.39101 0,19.81111 -12.06621,29.64175 -30.30916,29.64175 -24.27542,0 -42.0877,-23.28906 -42.0877,-47.4857 0,-23.13837 14.36473,-34.027286 35.62455,-34.027286 7.89987,0 16.08786,1.965876 23.55706,4.385536 l 2.4415,16.03092 c -7.18151,-3.47795 -14.79541,-5.5958 -22.69528,-5.5958 -13.21568,0 -20.5406,5.29227 -20.5406,19.65957 l 52.14223,0 z m -49.55732,13.91307 c 3.73524,10.73737 8.90635,18.2986 20.82915,18.2986 8.04329,0 12.2092,-4.68906 12.2092,-13.00505 0,-1.81561 -0.14298,-3.47838 -0.43067,-5.29355 l -32.60768,0 z"
       style="fill:#ffffff;fill-opacity:1;fill-rule:evenodd;stroke:none"
       id="path36"
       inkscape:connector-curvature="0" /><path
       d="m 556.79895,98.687914 19.24687,0 15.80145,77.883486 -19.24815,0 -15.80017,-77.883486 z"
       style="fill:#ffffff;fill-opacity:1;fill-rule:evenodd;stroke:none"
       id="path38"
       inkscape:connector-curvature="0" /><path
       d="m 594.90867,98.687914 19.24815,0 6.8951,34.934016 c 2.4415,12.55297 9.04934,25.40776 22.6957,25.40776 2.4415,0 5.17069,-0.45379 7.32492,-1.20983 l 4.0225,19.81111 c -2.29808,0.60449 -4.88428,0.75475 -7.32492,0.75475 -8.90592,0 -18.38722,-8.01546 -21.83477,-16.48343 l -0.28641,0 2.58492,14.66911 -18.38637,0 c -0.5741,-3.62949 -1.14947,-7.10744 -1.72314,-10.43384 L 594.90867,98.687914 Z"
       style="fill:#ffffff;fill-opacity:1;fill-rule:evenodd;stroke:none"
       id="path40"
       inkscape:connector-curvature="0" /><path
       d="m 687.31229,114.29544 c -11.06145,0 -15.08309,8.01546 -15.08309,18.29989 0,14.06376 7.61261,31.75702 22.83997,31.75702 11.34657,0 14.6507,-8.46796 14.6507,-18.60085 0,-13.30901 -7.46919,-31.45606 -22.40758,-31.45606 z m 8.61695,65.78559 c -24.84951,0 -43.81083,-19.96394 -43.81083,-45.97363 0,-21.92853 12.64159,-35.539356 33.61245,-35.539356 26.14325,0 44.09851,19.962666 44.09851,47.335006 0,21.47474 -13.93233,34.17798 -33.90013,34.17798"
       style="fill:#ffffff;fill-opacity:1;fill-rule:evenodd;stroke:none"
       id="path42"
       inkscape:connector-curvature="0" /><path
       d="m 795.66591,176.90533 c -6.75083,1.81432 -13.93233,3.1757 -20.97214,3.1757 -15.22607,0 -32.0323,-6.50338 -32.0323,-24.80113 0,-19.50973 24.99379,-20.7187 24.99379,-33.26996 0,-6.35184 -6.75083,-8.62124 -13.21398,-8.62124 -7.47047,0 -12.92928,2.87389 -18.38765,6.04959 L 731.889,103.25582 c 7.03852,-3.476659 14.7954,-4.687776 22.55228,-4.687776 16.51854,0 33.32476,6.049586 33.32476,26.315356 0,19.05378 -24.99378,22.68242 -24.99378,32.51306 0,6.19986 7.18151,7.86348 12.92757,7.86348 5.45837,0 10.77247,-1.66362 15.80017,-3.62949 l 4.16591,15.27488 z"
       style="fill:#ffffff;fill-opacity:1;fill-rule:evenodd;stroke:none"
       id="path44"
       inkscape:connector-curvature="0" /><path
       d="m 61.030556,143.01975 c 0,0 -5.763186,1.51807 -5.763186,-5.29569 0,-6.81291 5.763186,-5.55812 5.763186,-5.55812 l 4.713465,0 C 76.21896,109.53488 91.299481,95.456558 91.299481,95.456558 103.21543,108.65469 111.2403,121.09464 116.62119,132.16594 l 4.58375,0 c 0,0 6.0954,-0.63489 6.0954,5.55812 0,5.82098 -5.38688,5.37703 -6.03247,5.30297 8.28602,22.43712 5.53843,37.03474 5.53843,37.03474 l -28.125815,0 -7.47904,36.40841 -7.182791,-36.40841 -27.960141,0 c -0.801846,-13.52478 1.525348,-26.02681 5.31196,-37.04202 l -0.339917,0 z m 30.150339,56.9426 5.519165,-26.39797 23.87984,0 c 0,0 5.83811,-31.01812 -29.394295,-70.0427 0,0 -31.58236,29.4705 -29.175967,70.0427 l 23.871712,0 5.299545,26.39797 z"
       style="fill:#8cc221;fill-opacity:1;fill-rule:evenodd;stroke:none"
       id="path46"
       inkscape:connector-curvature="0" /><path
       d="m 377.10031,114.29544 c -11.06144,0 -15.08309,8.01546 -15.08309,18.29989 0,14.06376 7.61261,31.75702 22.83869,31.75702 11.34786,0 14.652,-8.46796 14.652,-18.60085 0,-13.30901 -7.47049,-31.45606 -22.4076,-31.45606 z m 8.61695,65.78559 c -24.84951,0 -43.81082,-19.96394 -43.81082,-45.97363 0,-21.92853 12.64159,-35.539356 33.61244,-35.539356 26.14327,0 44.09853,19.962666 44.09853,47.335006 0,21.47474 -13.93362,34.17798 -33.90015,34.17798"
       style="fill:#8cc221;fill-opacity:1;fill-rule:evenodd;stroke:none"
       id="path48"
       inkscape:connector-curvature="0" /><path
       d="m 557.17055,84.977766 3.31741,0 c 5.68184,0 9.495,-2.569074 9.495,-8.833574 0,-9.072458 -4.84233,-14.371575 -12.85008,-14.371575 l -4.69035,0 4.72802,23.205149 z m -7.85535,-25.61411 8.04586,0 c 9.72489,0 15.2539,6.78465 15.2539,16.780536 0,8.511637 -5.797,11.242108 -12.92757,11.242108 l -4.72802,0 -5.64417,-28.022644 z"
       style="fill:#8cc221;fill-opacity:1;fill-rule:evenodd;stroke:none"
       id="path50"
       inkscape:connector-curvature="0" /><path
       d="m 574.6138,59.363656 13.65192,0 0.38016,2.408961 -10.94371,0 2.13582,10.800301 9.99118,0 0.41826,2.407677 -9.95179,0 1.9449,9.997171 10.56141,0 0.42126,2.408534 -13.1185,0 -5.49091,-28.022644 z"
       style="fill:#8cc221;fill-opacity:1;fill-rule:evenodd;stroke:none"
       id="path52"
       inkscape:connector-curvature="0" /><path
       d="m 573.59319,181.63335 19.249,0 4.02165,19.3556 -19.24772,0 -4.02293,-19.3556 z"
       style="fill:#8cc221;fill-opacity:1;fill-rule:evenodd;stroke:none"
       id="path54"
       inkscape:connector-curvature="0" /><path
       d="m 613.81305,84.977766 2.78398,0 c 3.08837,0 5.91003,-0.763316 5.91003,-4.61757 0,-4.777681 -3.92703,-6.463141 -7.96923,-6.463141 l -2.97449,0 2.24971,11.080711 z m -7.89259,-25.61411 2.63072,0 2.51684,12.124437 3.73653,0 c 5.18695,0 10.33323,2.850341 10.33323,8.872103 0,5.901465 -4.00323,7.026104 -8.96072,7.026104 l -4.53709,0 -5.71951,-28.022644 z"
       style="fill:#8cc221;fill-opacity:1;fill-rule:evenodd;stroke:none"
       id="path56"
       inkscape:connector-curvature="0" /><path
       d="m 625.991,70.324068 c 0,-6.826177 3.50706,-11.442461 10.0661,-11.442461 8.84684,0 14.14767,8.672176 14.14767,17.54428 0,6.824893 -3.50834,11.442462 -10.06738,11.442462 -8.84685,0 -14.14639,-8.673034 -14.14639,-17.544281 z m 2.62987,0.240597 c 0,6.904948 4.31018,14.894722 11.43989,14.894722 5.07136,0 7.51286,-4.054608 7.51286,-9.273669 0,-6.904948 -4.31019,-14.89515 -11.43989,-14.89515 -5.07137,0 -7.51286,4.054608 -7.51286,9.274097"
       style="fill:#8cc221;fill-opacity:1;fill-rule:evenodd;stroke:none"
       id="path58"
       inkscape:connector-curvature="0" /><path
       d="m 652.23743,59.363656 2.66967,0 2.6684,13.209262 3.08965,0 c 2.13498,0 3.04984,-0.603204 3.66032,-2.810527 l 2.32763,-10.398735 2.59176,0 -2.51685,10.759202 c -0.38101,1.526631 -0.64772,3.011737 -2.86018,3.412446 l 0,0.08006 c 4.19502,0.201211 7.512,2.930825 7.512,7.508152 0,4.81664 -3.08751,6.383086 -7.3215,6.262788 l -6.0239,0 -5.797,-28.022644 z m 7.8562,25.61411 3.85083,0 c 2.70864,0 4.80422,-1.043727 4.80422,-4.216005 0,-4.497271 -4.347,-5.781166 -7.89302,-5.781166 l -2.78355,0 2.02152,9.997171 z"
       style="fill:#8cc221;fill-opacity:1;fill-rule:evenodd;stroke:none"
       id="path60"
       inkscape:connector-curvature="0" /><path
       d="m 674.55297,84.977766 8.08353,0 -5.18567,-25.61411 2.74631,0 5.10904,25.61411 8.08438,0 0.45765,2.408534 -18.79992,0 -0.49532,-2.408534 z"
       style="fill:#8cc221;fill-opacity:1;fill-rule:evenodd;stroke:none"
       id="path62"
       inkscape:connector-curvature="0" /><path
       d="m 716.32044,87.3863 -2.44065,0 -3.8504,-18.266927 c -0.91615,-4.374832 -3.50962,-7.828805 -8.04671,-7.828805 -3.7742,0 -6.10053,2.449204 -6.10053,6.544482 0,1.685888 0.49489,4.254962 0.80099,5.90018 l 2.70735,13.65107 -2.51685,0 -2.09729,-10.076799 c -0.57238,-2.609316 -1.52621,-7.065489 -1.52621,-9.594321 0,-5.741352 3.69885,-8.833573 8.77107,-8.833573 6.17845,0 9.76171,4.656526 10.75321,11.161194 l 3.54602,17.343499 z"
       style="fill:#8cc221;fill-opacity:1;fill-rule:evenodd;stroke:none"
       id="path64"
       inkscape:connector-curvature="0" /><path
       d="m 742.15288,86.461587 c -2.78398,1.045011 -5.49134,1.406762 -8.15973,1.406762 -8.65634,0 -15.55743,-6.544482 -15.55743,-15.938449 0,-7.869903 4.80294,-13.048293 12.20064,-13.048293 4.30933,0 6.29232,1.125066 7.28382,1.405477 l 2.78356,14.251704 -9.03693,0 -0.53385,-2.407677 6.36853,0 -1.86869,-9.676518 c -0.87762,-0.440523 -2.40297,-1.164025 -5.18695,-1.164025 -5.49005,0 -9.3807,4.537513 -9.3807,10.317395 0,8.23037 5.56797,13.851424 13.23238,13.851424 2.44065,0 4.95749,-0.441807 7.13099,-1.606688 l 0.72436,2.608888 z"
       style="fill:#8cc221;fill-opacity:1;fill-rule:evenodd;stroke:none"
       id="path66"
       inkscape:connector-curvature="0" /><path
       d="m 761.61294,69.28077 -11.78323,0 8.99968,15.335245 2.78355,-15.335245 z m -20.40061,-9.917114 2.82166,0 4.38425,7.506867 13.61468,0 1.33484,-7.506867 2.66882,0 -5.18695,28.022644 -3.12604,0 -16.51126,-28.022644 z"
       style="fill:#8cc221;fill-opacity:1;fill-rule:evenodd;stroke:none"
       id="path68"
       inkscape:connector-curvature="0" /><path
       d="m 769.1806,59.363656 13.61254,0 0.41955,2.408961 -10.86837,0 5.2242,25.613683 -2.70736,0 -5.68056,-28.022644 z"
       style="fill:#8cc221;fill-opacity:1;fill-rule:evenodd;stroke:none"
       id="path70"
       inkscape:connector-curvature="0" /><text
       xml:space="preserve"
       style="font-style:normal;font-weight:normal;font-size:89.70323944px;line-height:125%;font-family:sans-serif;letter-spacing:0px;word-spacing:0px;fill:#ffffff;fill-opacity:1;stroke:none;stroke-width:1px;stroke-linecap:butt;stroke-linejoin:miter;stroke-opacity:1;"
       x="42.790588"
       y="-10.609371"
       id="text4378"
       sodipodi:linespacing="125%"
       transform="scale(1.0105503,-0.98955983)"><tspan
         sodipodi:role="line"
         id="tspan4380"
         x="42.790588"
         y="-10.609371"
         style="font-style:normal;font-variant:normal;font-weight:normal;font-stretch:normal;font-size:55.58026886px;line-height:125%;font-family:Arial;-inkscape-font-specification:Roboto;text-align:start;writing-mode:lr-tb;text-anchor:start;fill:#ffffff;fill-opacity:1;"><tspan
           style="font-size:50.52751541px;fill:#ffffff;"
           id="tspan3365">G R U P O   3  3  -  </tspan><tspan
           style="font-style:normal;font-variant:normal;font-weight:bold;font-stretch:normal;font-size:50.52751541px;line-height:125%;font-family:Arial;-inkscape-font-specification:'Roboto, Bold Italic';text-align:start;writing-mode:lr-tb;text-anchor:start;fill:#ffffff;"
           id="tspan4382">P  O  R  T  O</tspan></tspan></text>
</g></svg>