<svg xmlns="http://www.w3.org/2000/svg" viewBox="0 0 744.09449 938.97642" height="265mm" width="210mm"><defs><filter id="a" color-interpolation-filters="sRGB"><feGaussianBlur stdDeviation="6.141"/></filter></defs><path transform="matrix(.62303 -.7822 .62303 .7822 0 -113.386)" fill="#ef0a0a" stroke="#000" stroke-width="41.12" d="M-343.461 399.234h541.595v541.595h-541.595z"/><g filter="url(#a)" transform="matrix(.82048 0 0 1.04625 123.743 143.342)"><path d="M273.241 291.62v225.385c2.068 35.47-11.722 33.969-14.115 24.99-10-37.536-51.937-47.922-66.015-23.422 18.697-5.763 33.364-5.445 26.601 24.039-4.117 17.951 2.19 45.578 18.624 50.023 18.46 4.995 29.362-3.295 34.905-8.155-.104 19.434 4.753 50.887 29.51 59.641l-.001-382.03-29.509 29.53zM332.309 291.62v225.385c-2.068 35.47 11.722 33.969 14.115 24.99 10.001-37.536 51.938-47.922 66.015-23.422-18.697-5.763-33.364-5.445-26.601 24.039 4.117 17.951-2.19 45.578-18.624 50.023-18.46 4.995-29.362-3.295-34.905-8.155.104 19.434-4.752 50.887-29.51 59.641l.001-382.03 29.509 29.53zM332.393 291.599h125.385c35.47-2.068 33.968 11.723 24.989 14.115-37.535 10.001-47.922 51.938-23.421 66.016-5.763-18.698-5.445-33.364 24.038-26.602 17.952 4.118 45.578-2.19 50.024-18.623 4.995-18.46-3.295-29.363-8.156-34.906 19.434.104 50.888-4.752 59.642-29.51l-282.03.001 29.53 29.509z"/><path d="M332.33 232.58h125.385c35.47 2.067 33.969-11.723 24.99-14.115-37.536-10.001-47.922-51.938-23.422-66.016-5.763 18.697-5.445 33.364 24.039 26.602 17.951-4.118 45.578 2.19 50.024 18.623 4.994 18.46-3.296 29.362-8.156 34.906 19.434-.105 50.887 4.752 59.641 29.51l-282.03-.002 29.53-29.508z"/><path d="M332.311 232.56V107.176c-2.067-35.47 11.723-33.969 14.115-24.99 10.001 37.536 51.938 47.922 66.016 23.422-18.697 5.763-33.364 5.445-26.602-24.039 4.118-17.951-2.19-45.578-18.623-50.024-18.46-4.994-29.362 3.296-34.906 8.156.105-19.434-4.752-50.887-29.51-59.641l.002 282.03 29.508-29.53z"/><path d="M273.292 232.623V107.238c2.068-35.47-11.723-33.968-14.115-24.989-10.001 37.535-51.938 47.922-66.016 23.421 18.698 5.763 33.364 5.445 26.602-24.038-4.118-17.952 2.19-45.578 18.623-50.024 18.46-4.994 29.362 3.295 34.906 8.156-.105-19.434 4.752-50.888 29.51-59.642l-.002 282.03-29.508-29.53z"/><g><path d="M273.214 232.58H147.829c-35.47 2.067-33.968-11.723-24.989-14.115 37.535-10.001 47.922-51.938 23.421-66.016 5.763 18.697 5.445 33.364-24.038 26.602-17.952-4.118-45.578 2.19-50.024 18.623-4.995 18.46 3.295 29.362 8.156 34.906-19.434-.105-50.888 4.752-59.642 29.51l282.03-.002-29.53-29.508z"/><path d="M273.276 291.599H147.892c-35.47-2.068-33.969 11.723-24.99 14.115 37.535 10.001 47.922 51.938 23.421 66.016 5.764-18.698 5.446-33.364-24.038-26.602-17.951 4.118-45.578-2.19-50.024-18.623-4.994-18.46 3.296-29.363 8.156-34.906-19.434.104-50.887-4.752-59.641-29.51l282.03.001-29.53 29.509z"/></g></g><path d="M347.932 448.45v235.809c1.696 37.11-9.618 35.539-11.581 26.144-8.206-39.27-42.614-50.137-54.165-24.504 15.341-6.03 27.375-5.697 21.826 25.15-3.378 18.782 1.798 47.686 15.28 52.338 15.147 5.225 24.092-3.448 28.64-8.533-.086 20.333 3.9 53.24 24.213 62.4l-.002-399.7-24.211 30.896z"/><path d="M332.309 291.62v225.385c-2.068 35.47 11.722 33.969 14.115 24.99 10.001-37.536 51.938-47.922 66.015-23.422-18.697-5.763-33.364-5.445-26.601 24.039 4.117 17.951-2.19 45.578-18.624 50.023-18.46 4.995-29.362-3.295-34.905-8.155.104 19.434-4.752 50.887-29.51 59.641l.001-382.03 29.509 29.53z" fill="#fff" stroke="#000" stroke-width=".1" transform="matrix(.82048 0 0 1.04625 123.743 143.342)"/><path d="M396.464 448.427h102.875c29.102-2.163 27.87 12.265 20.503 14.768-30.797 10.464-39.319 54.34-19.217 69.069-4.728-19.562-4.467-34.907 19.723-27.832 14.729 4.308 37.396-2.292 41.044-19.485 4.097-19.314-2.704-30.72-6.692-36.52 15.945.11 41.752-4.972 48.934-30.875l-231.399.002 24.229 30.873z"/><path d="M331.26 232.58h125.385c35.47 2.067 33.968-11.723 24.989-14.116-37.535-10-47.921-51.937-23.42-66.015-5.764 18.697-5.446 33.364 24.037 26.602 17.952-4.118 45.578 2.19 50.024 18.623 4.995 18.46-3.295 29.362-8.156 34.906 19.435-.105 50.888 4.752 59.642 29.51l-282.03-.002 29.53-29.508z" fill="#fff" stroke="#000" stroke-width=".1" transform="matrix(.82048 0 0 1.04625 124.621 143.342)"/><path d="M396.396 386.658V255.475c-1.696-37.111 9.619-35.54 11.582-26.145 8.205 39.27 42.613 50.138 54.164 24.504-15.341 6.03-27.375 5.697-21.826-25.15 3.378-18.782-1.797-47.686-15.28-52.338-15.147-5.225-24.091 3.448-28.64 8.533.086-20.332-3.899-53.24-24.212-62.4l.001 295.075 24.211-30.896z"/><path d="M331.26 232.58h125.385c35.47 2.067 33.968-11.723 24.989-14.116-37.535-10-47.921-51.937-23.42-66.015-5.764 18.697-5.446 33.364 24.037 26.602 17.952-4.118 45.578 2.19 50.024 18.623 4.995 18.46-3.295 29.362-8.156 34.906 19.435-.105 50.888 4.752 59.642 29.51l-282.03-.002 29.53-29.508z" fill="#fff" stroke="#000" stroke-width=".1" transform="matrix(0 -1.04625 .82048 0 157.146 733.304)"/><g><path d="M347.908 386.678H245.033c-29.102 2.163-27.87-12.265-20.503-14.768 30.797-10.463 39.319-54.34 19.217-69.068 4.728 19.562 4.467 34.907-19.723 27.831-14.729-4.307-37.396 2.292-41.044 19.485-4.097 19.315 2.704 30.72 6.692 36.52-15.945-.11-41.752 4.972-48.934 30.876l231.399-.002-24.229-30.874z"/><path d="M331.26 232.58h125.385c35.47 2.067 33.968-11.723 24.989-14.116-37.535-10-47.921-51.937-23.42-66.015-5.764 18.697-5.446 33.364 24.037 26.602 17.952-4.118 45.578 2.19 50.024 18.623 4.995 18.46-3.295 29.362-8.156 34.906 19.435-.105 50.888 4.752 59.642 29.51l-282.03-.002 29.53-29.508z" fill="#fff" stroke="#000" stroke-width=".1" transform="matrix(-.82048 0 0 -1.04625 619.75 691.763)"/></g></svg>