<svg xmlns="http://www.w3.org/2000/svg" width="1000" height="325" viewBox="0 0 1000 325"><path d="M9.06 129.984c-14.939-17.99-3.443-41.617-3.443-41.617s8.604-21.938 39.722-23.63c14.79-.804 24.373 6.524 30.36 14.433-.888-5.208-1.353-10.703-.76-15.49 1.79-14.445 13.375-31.589 20.362-38.77 6.988-7.183 18.702-26.115 18.702-26.115-.447 1.368-6.826 14.714-25.463 43.102-14.808 22.558-1.947 57.063-1.947 57.063l.215.963h-5.6l-.201-.898s-2.005-5.335-3.76-12.477C71.365 79.57 62.402 73.55 49.12 74.272c-30.273 1.649-38.643 22.99-38.643 22.99S2.266 114.14 9.06 129.984zm89.73 57.788c-5.332 11.808-11.336 31.28-1.048 44.478l13.58 18.447-16.247-16.287c-11.748-15.072-3.888-39.51.77-50.774a166.224 166.224 0 0 0 2.945 4.136zm-8.65-12.99c-.66 4.655-2.763 11.167-9.013 16.19-10.925 8.78-27.771-.59-29.069-7.56 0 0-12.998 15.18-3.801 28.599-13.807-12.625 4.637-33.748 4.637-33.748.786 9.306 14.115 15.45 25.343 6.427 5.708-4.587 8.052-10.383 8.98-14.975a161.222 161.222 0 0 0 2.924 5.068" fill="#fff" fill-rule="evenodd"/><path d="M54.788 114.137l-10.11-6.564-8.819 8.219 2.568-12.275-10.11-6.561 11.699-1.024 2.57-12.275 4.66 11.642 11.699-1.023-8.817 8.218 4.66 11.643z" fill="#fff"/><path d="M107.808 116.938v12.138s6.335 9.596 13.15 0v-12.138h-13.15zM90.518 138.174v12.138s6.332 9.593 13.148 0v-12.138H90.518zM107.73 138.172v12.139s6.334 9.594 13.15 0v-12.139h-13.15zM124.85 138.2v12.14s6.334 9.592 13.15 0V138.2h-13.15zM107.638 161.032v12.137s6.333 9.596 13.15 0v-12.137h-13.15zM261.476 158.69c1.437-7.184 2.335-14.367 2.335-21.74 0-24.763-15.083-37.051-37.887-37.051-30.344 0-52.608 29.111-52.608 59.357 0 28.923 17.954 42.534 44.53 42.534 9.875 0 20.109-2.457 29.446-5.482l3.052-20.039c-8.977 4.348-18.494 6.995-28.37 6.995-16.519 0-25.677-6.615-25.677-24.574h65.18zm-61.946-17.392c4.668-13.421 11.133-22.873 26.035-22.873 10.055 0 15.263 5.861 15.263 16.256 0 2.27-.18 4.348-.54 6.617H199.53zM344.488 103.868c-8.439-2.268-17.415-3.97-26.214-3.97-19.033 0-40.04 8.13-40.04 31.002 0 24.387 31.242 25.899 31.242 41.588 0 7.94-8.438 10.776-16.52 10.776-9.336 0-16.159-3.592-22.982-7.562l-5.208 20.228c8.798 4.346 18.495 5.86 28.19 5.86 20.65 0 41.657-7.562 41.657-32.894 0-23.817-31.241-28.353-31.241-40.642 0-7.75 8.976-9.829 16.16-9.829 6.823 0 13.466 2.08 19.75 4.537l5.206-19.094zM428.58 103.68c-6.464-2.08-15.083-3.781-24.06-3.781-33.217 0-54.585 25.898-54.585 59.924 0 25.143 15.44 41.967 39.322 41.967 7.902 0 15.802-.757 23.163-4.537l2.693-20.039c-6.283 3.213-13.645 4.917-19.572 4.917-16.517 0-20.469-12.668-20.469-25.332 0-18.337 10.775-37.24 29.987-37.24 6.644 0 12.928 1.7 17.596 4.915l5.925-20.793zM536.971 120.692h37.805l-21.864 6.768-5.348 26.126c-1.615 7.75-3.052 15.122-3.052 22.684 0 18.714 11.492 25.52 27.83 25.52 4.131 0 8.799-1.324 12.928-2.269l4.13-19.659c-3.051 1.322-7.36 2.27-11.67 2.27-5.388 0-9.158-3.593-9.158-9.453 0-3.783.54-7.184 1.078-9.452l8.798-42.534h21.546l3.772-18.524h-21.548l5.926-28.924-25.856 8.887-4.13 20.037h-17.417l-3.77 18.524zM688.93 158.69c1.436-7.184 2.334-14.367 2.334-21.74 0-24.763-15.082-37.051-37.886-37.051-30.344 0-52.61 29.111-52.61 59.357 0 28.923 17.956 42.534 44.531 42.534 9.875 0 20.11-2.457 29.446-5.482l3.052-20.039c-8.977 4.348-18.494 6.995-28.369 6.995-16.52 0-25.676-6.615-25.676-24.574h65.178zm-61.947-17.392c4.67-13.421 11.133-22.873 26.037-22.873 10.054 0 15.261 5.861 15.261 16.256 0 2.27-.178 4.348-.538 6.617h-40.76zM695.999 201.64h24.058l19.752-97.354h-24.06l-19.75 97.354zM743.636 201.64h24.06l8.619-43.667c3.052-15.692 11.312-31.76 28.37-31.76 3.051 0 6.463.567 9.156 1.512l5.028-24.764c-2.873-.755-6.106-.943-9.156-.943-11.133 0-22.984 10.02-27.294 20.604h-.358l3.231-18.336H762.31a951.295 951.295 0 0 1-2.154 13.042l-16.52 84.312zM859.14 182.13c-13.826 0-18.854-10.019-18.854-22.874 0-17.58 9.516-39.696 28.55-39.696 14.184 0 18.314 10.585 18.314 23.25 0 16.637-9.337 39.32-28.01 39.32zM869.912 99.9c-31.062 0-54.764 24.955-54.764 57.467 0 27.41 15.802 44.424 42.016 44.424 32.679 0 55.123-24.953 55.123-59.169 0-26.843-17.416-42.722-42.375-42.722M994.582 103.868c-8.438-2.268-17.415-3.97-26.215-3.97-19.032 0-40.04 8.13-40.04 31.002 0 24.387 31.242 25.899 31.242 41.588 0 7.94-8.438 10.776-16.517 10.776-9.338 0-16.162-3.592-22.985-7.562l-5.206 20.228c8.798 4.346 18.494 5.86 28.19 5.86 20.649 0 41.657-7.562 41.657-32.894 0-23.817-31.243-28.353-31.243-40.642 0-7.75 8.977-9.829 16.16-9.829 6.823 0 13.465 2.08 19.75 4.537l5.207-19.094z" fill="#fff" fill-rule="evenodd"/><path d="M76.288 146.225s-7.204-1.897-7.204 6.62c0 8.516 7.204 6.948 7.204 6.948h5.892c13.094 28.288 31.944 45.886 31.944 45.886 14.895-16.497 24.926-32.047 31.652-45.886h5.73s7.62.793 7.62-6.948c0-7.276-6.734-6.721-7.541-6.629 10.357-28.046 6.923-46.293 6.923-46.293H123.35L114 54.413l-8.978 45.51h-34.95c-1.002 16.906 1.907 32.533 6.64 46.302h-.425zm37.688-71.178l6.9 32.998h29.849s7.298 38.772-36.743 87.553c0 0-39.478-36.838-36.47-87.553h29.84l6.624-32.998zM471.375 182.13c-13.826 0-18.853-10.019-18.853-22.874 0-17.58 9.515-39.696 28.548-39.696 14.185 0 18.315 10.585 18.315 23.25 0 16.637-9.338 39.32-28.01 39.32zM482.147 99.9c-31.062 0-54.764 24.955-54.764 57.467 0 27.41 15.802 44.424 42.016 44.424 32.679 0 55.123-24.953 55.123-59.169 0-26.843-17.417-42.722-42.375-42.722M696.463 218.778h4.147c7.102 0 11.869 3.211 11.869 11.042 0 11.34-6.053 17.964-16.063 17.964h-5.863l5.91-29.006zm-9.819 32.017h10.057c12.156 0 19.068-8.48 19.068-20.975 0-10.64-7.247-14.053-16.16-14.053h-5.91l-7.055 35.028zM718.267 250.795h17.065l.475-3.01h-13.68l2.67-13.501h12.49l.522-3.01h-12.44l2.432-12.496h13.201l.527-3.01h-16.398l-6.864 35.027zM716.991 97.958h24.062l5.027-24.194h-24.06l-5.029 24.194zM767.266 218.778h3.48c3.86 0 7.388.954 7.388 5.772 0 5.972-4.909 8.079-9.962 8.079h-3.718l2.812-13.851zm-9.865 32.017h3.288l3.146-15.155h4.67c6.484 0 12.917-3.563 12.917-11.09 0-7.377-5.004-8.783-11.2-8.783h-5.672l-7.15 35.028zM782.489 237.095c0 8.533 4.384 14.303 12.582 14.303 11.059 0 17.685-10.84 17.685-21.93 0-8.531-4.385-14.303-12.584-14.303-11.059 0-17.683 10.84-17.683 21.93zm3.287-.3c0-8.632 5.388-18.62 14.3-18.62 6.34 0 9.391 5.069 9.391 11.593 0 8.631-5.388 18.619-14.3 18.619-6.34 0-9.39-5.068-9.39-11.593M815.297 250.795h3.337l3.335-16.511h3.862c2.67 0 3.813.754 4.576 3.513l2.91 12.998h3.24l-3.147-13.449c-.476-1.908-.81-3.764-3.575-4.265v-.1c5.244-.252 9.39-3.664 9.39-9.385 0-6.021-3.86-7.98-9.152-7.829h-7.53l-7.246 35.028zm9.82-32.017h4.814c3.385 0 6.005 1.304 6.005 5.27 0 5.621-5.434 7.226-9.866 7.226h-3.48l2.527-12.496zM843.191 218.778h10.105l-6.482 32.017h3.432l6.387-32.017h10.105l.572-3.01h-23.5l-.619 3.01zM895.4 215.767h-3.05l-4.813 22.834c-1.145 5.468-4.387 9.786-10.059 9.786-4.717 0-7.625-3.062-7.625-8.18 0-2.108.618-5.32 1-7.376l3.385-17.064h-3.146l-2.622 12.596c-.715 3.262-1.907 8.832-1.907 11.993 0 7.177 4.623 11.042 10.964 11.042 7.723 0 12.202-5.82 13.441-13.951l4.433-21.68zM927.691 216.923c-3.48-1.306-6.864-1.758-10.2-1.758-10.82 0-19.446 8.18-19.446 19.923 0 9.837 6.003 16.31 15.25 16.31 5.387 0 7.866-1.406 9.105-1.757l3.48-17.814h-11.296l-.668 3.01h7.96l-2.335 12.095c-1.097.55-3.004 1.455-6.484 1.455-6.862 0-11.726-5.672-11.726-12.897 0-10.288 6.96-17.314 16.54-17.314 3.052 0 6.198.552 8.915 2.008l.905-3.261zM952.016 238.4h-14.729l11.25-19.17 3.48 19.17zm-25.5 12.395h3.526l5.48-9.383h17.02l1.668 9.383h3.336l-6.484-35.028h-3.908l-20.639 35.028zM961.476 250.795h17.015l.525-3.01H965.43l6.53-32.018h-3.384l-7.1 35.028z" fill="#8cc221" fill-rule="evenodd"/><text style="line-height:125%" x="42.791" y="-10.609" transform="matrix(1.26 0 0 1.24 0 325)" font-weight="400" font-size="89.703" font-family="sans-serif" letter-spacing="0" word-spacing="0" fill="#fff"><tspan x="42.791" y="-10.609" style="line-height:125%;-inkscape-font-specification:Roboto;text-align:start" font-size="55.58" font-family="Arial"><tspan font-size="50.528">G R U P O 3 3 - </tspan><tspan style="line-height:125%;-inkscape-font-specification:'Roboto, Bold Italic';text-align:start" font-weight="700" font-size="50.528">P O R T O</tspan></tspan></text></svg>